<!DOCTYPE svg PUBLIC "-//W3C//DTD SVG 1.1//EN" "http://www.w3.org/Graphics/SVG/1.1/DTD/svg11.dtd">

<!-- LICENSE: CC0 License. Uploaded to: SVG Repo, www.svgrepo.com, Transformed by: SVG Repo Mixer Tools -->
<svg width="60px" height="60px" viewBox="0 0 60 60"
    xmlns="http://www.w3.org/2000/svg" fill="#000000">
    <g id="SVGRepo_bgCarrier" stroke-width="0"/>
    <g id="SVGRepo_tracerCarrier" stroke-linecap="round" stroke-linejoin="round"/>
    <g id="SVGRepo_iconCarrier">
        <defs>
            <style> .cls-1 { fill: #699f4c; fill-rule: evenodd; } </style>
        </defs>
        <path class="cls-1" d="M800,510a30,30,0,1,1,30-30A30,30,0,0,1,800,510Zm-16.986-23.235a3.484,3.484,0,0,1,0-4.9l1.766-1.756a3.185,3.185,0,0,1,4.574.051l3.12,3.237a1.592,1.592,0,0,0,2.311,0l15.9-16.39a3.187,3.187,0,0,1,4.6-.027L817,468.714a3.482,3.482,0,0,1,0,4.846l-21.109,21.451a3.185,3.185,0,0,1-4.552.03Z" id="check" transform="translate(-770 -450)"/>
    </g>
</svg>
