<!DOCTYPE svg PUBLIC "-//W3C//DTD SVG 1.1//EN" "http://www.w3.org/Graphics/SVG/1.1/DTD/svg11.dtd">

<!-- LICENSE: CC0 License. Uploaded to: SVG Repo, www.svgrepo.com, Transformed by: SVG Repo Mixer Tools -->
<svg version="1.1" id="Layer_1"
    xmlns="http://www.w3.org/2000/svg"
    xmlns:xlink="http://www.w3.org/1999/xlink" viewBox="0 0 491.52 491.52" xml:space="preserve" width="64px" height="64px" fill="#000000">
    <g id="SVGRepo_bgCarrier" stroke-width="0"/>
    <g id="SVGRepo_tracerCarrier" stroke-linecap="round" stroke-linejoin="round"/>
    <g id="SVGRepo_iconCarrier">
        <path style="fill:#2F4859;" d="M399.782,13.613H91.738c-9.569,0-17.325,7.756-17.325,17.326v443.255 c0,9.569,7.756,17.326,17.325,17.326h308.044c9.569,0,17.325-7.757,17.325-17.326V30.939 C417.107,21.37,409.35,13.613,399.782,13.613z"/>
        <path style="fill:#64798A;" d="M399.782,0H91.738C82.17,0,74.413,7.756,74.413,17.325v443.256c0,9.569,7.756,17.325,17.325,17.325 h308.044c9.569,0,17.325-7.756,17.325-17.325V17.325C417.107,7.756,409.35,0,399.782,0z"/>
        <rect x="103.905" y="46.746" style="fill:#EBF0F3;" width="283.699" height="122.737"/>
        <rect x="103.905" y="146.493" style="fill:#E1E6E9;" width="283.699" height="22.989"/>
        <circle style="fill:#EBF0F3;" cx="133.325" cy="239.329" r="22.456"/>
        <path style="fill:#D5D6DB;" d="M133.325,216.874c-0.283,0-0.546,0.072-0.826,0.083c11.099,0.442,19.979,9.513,19.979,20.722 c0,11.49-9.314,20.805-20.805,20.805c-11.208,0-20.279-8.88-20.722-19.979c-0.01,0.28-0.083,0.542-0.083,0.826 c0,12.402,10.054,22.455,22.456,22.455c12.401,0,22.456-10.054,22.456-22.455C155.781,226.927,145.727,216.874,133.325,216.874z"/>
        <circle style="fill:#EBF0F3;" cx="208.282" cy="239.329" r="22.456"/>
        <path style="fill:#D5D6DB;" d="M208.282,216.874c-0.283,0-0.546,0.072-0.826,0.083c11.099,0.442,19.979,9.513,19.979,20.722 c0,11.49-9.314,20.805-20.805,20.805c-11.208,0-20.279-8.88-20.722-19.979c-0.01,0.28-0.083,0.542-0.083,0.826 c0,12.402,10.054,22.455,22.456,22.455c12.401,0,22.456-10.054,22.456-22.455C230.738,226.927,220.684,216.874,208.282,216.874z"/>
        <circle style="fill:#EBF0F3;" cx="283.238" cy="239.329" r="22.456"/>
        <path style="fill:#D5D6DB;" d="M283.239,216.874c-0.283,0-0.546,0.072-0.826,0.083c11.099,0.442,19.979,9.513,19.979,20.722 c0,11.49-9.314,20.805-20.805,20.805c-11.208,0-20.279-8.88-20.722-19.979c-0.01,0.28-0.083,0.542-0.083,0.826 c0,12.402,10.054,22.455,22.456,22.455c12.401,0,22.456-10.054,22.456-22.455C305.695,226.927,295.64,216.874,283.239,216.874z"/>
        <circle style="fill:#E56353;" cx="358.195" cy="239.329" r="22.456"/>
        <path style="fill:#D15241;" d="M358.196,216.874c-0.283,0-0.546,0.072-0.826,0.083c11.099,0.442,19.979,9.513,19.979,20.722 c0,11.49-9.314,20.805-20.805,20.805c-11.208,0-20.279-8.88-20.722-19.979c-0.01,0.28-0.083,0.542-0.083,0.826 c0,12.402,10.054,22.455,22.456,22.455c12.402,0,22.456-10.054,22.456-22.455C380.652,226.927,370.597,216.874,358.196,216.874z"/>
        <circle style="fill:#EBF0F3;" cx="133.325" cy="301.865" r="22.456"/>
        <path style="fill:#D5D6DB;" d="M133.325,279.407c-0.283,0-0.546,0.073-0.826,0.083c11.099,0.443,19.979,9.514,19.979,20.722 c0,11.49-9.314,20.806-20.805,20.806c-11.208,0-20.279-8.881-20.722-19.98c-0.01,0.281-0.083,0.543-0.083,0.826 c0,12.402,10.054,22.455,22.456,22.455c12.401,0,22.456-10.054,22.456-22.455C155.781,289.461,145.727,279.407,133.325,279.407z"/>
        <circle style="fill:#EBF0F3;" cx="208.282" cy="301.865" r="22.456"/>
        <path style="fill:#D5D6DB;" d="M208.282,279.407c-0.283,0-0.546,0.073-0.826,0.083c11.099,0.443,19.979,9.514,19.979,20.722 c0,11.49-9.314,20.806-20.805,20.806c-11.208,0-20.279-8.881-20.722-19.98c-0.01,0.281-0.083,0.543-0.083,0.826 c0,12.402,10.054,22.455,22.456,22.455c12.401,0,22.456-10.054,22.456-22.455C230.738,289.461,220.684,279.407,208.282,279.407z"/>
        <circle style="fill:#EBF0F3;" cx="283.238" cy="301.865" r="22.456"/>
        <path style="fill:#D5D6DB;" d="M283.239,279.407c-0.283,0-0.546,0.073-0.826,0.083c11.099,0.443,19.979,9.514,19.979,20.722 c0,11.49-9.314,20.806-20.805,20.806c-11.208,0-20.279-8.881-20.722-19.98c-0.01,0.281-0.083,0.543-0.083,0.826 c0,12.402,10.054,22.455,22.456,22.455c12.401,0,22.456-10.054,22.456-22.455C305.695,289.461,295.64,279.407,283.239,279.407z"/>
        <circle style="fill:#FCD462;" cx="358.195" cy="301.865" r="22.456"/>
        <path style="fill:#F6C358;" d="M358.196,279.407c-0.283,0-0.546,0.073-0.826,0.083c11.099,0.443,19.979,9.514,19.979,20.722 c0,11.49-9.314,20.806-20.805,20.806c-11.208,0-20.279-8.881-20.722-19.98c-0.01,0.281-0.083,0.543-0.083,0.826 c0,12.402,10.054,22.455,22.456,22.455c12.402,0,22.456-10.054,22.456-22.455C380.652,289.461,370.597,279.407,358.196,279.407z"/>
        <circle style="fill:#EBF0F3;" cx="133.325" cy="364.39" r="22.456"/>
        <path style="fill:#D5D6DB;" d="M133.325,341.94c-0.283,0-0.546,0.073-0.826,0.084c11.099,0.442,19.979,9.513,19.979,20.722 c0,11.49-9.314,20.805-20.805,20.805c-11.208,0-20.279-8.88-20.722-19.98c-0.01,0.281-0.083,0.543-0.083,0.826 c0,12.402,10.054,22.456,22.456,22.456c12.401,0,22.456-10.054,22.456-22.456S145.727,341.94,133.325,341.94z"/>
        <circle style="fill:#EBF0F3;" cx="208.282" cy="364.39" r="22.456"/>
        <path style="fill:#D5D6DB;" d="M208.282,341.94c-0.283,0-0.546,0.073-0.826,0.084c11.099,0.442,19.979,9.513,19.979,20.722 c0,11.49-9.314,20.805-20.805,20.805c-11.208,0-20.279-8.88-20.722-19.98c-0.01,0.281-0.083,0.543-0.083,0.826 c0,12.402,10.054,22.456,22.456,22.456c12.401,0,22.456-10.054,22.456-22.456S220.684,341.94,208.282,341.94z"/>
        <circle style="fill:#EBF0F3;" cx="283.238" cy="364.39" r="22.456"/>
        <path style="fill:#D5D6DB;" d="M283.239,341.94c-0.283,0-0.546,0.073-0.826,0.084c11.099,0.442,19.979,9.513,19.979,20.722 c0,11.49-9.314,20.805-20.805,20.805c-11.208,0-20.279-8.88-20.722-19.98c-0.01,0.281-0.083,0.543-0.083,0.826 c0,12.402,10.054,22.456,22.456,22.456c12.401,0,22.456-10.054,22.456-22.456S295.64,341.94,283.239,341.94z"/>
        <circle style="fill:#44C4A1;" cx="358.195" cy="364.39" r="22.456"/>
        <path style="fill:#3EA69B;" d="M358.196,341.94c-0.283,0-0.546,0.073-0.826,0.084c11.099,0.442,19.979,9.513,19.979,20.722 c0,11.49-9.314,20.805-20.805,20.805c-11.208,0-20.279-8.88-20.722-19.98c-0.01,0.281-0.083,0.543-0.083,0.826 c0,12.402,10.054,22.456,22.456,22.456c12.402,0,22.456-10.054,22.456-22.456S370.597,341.94,358.196,341.94z"/>
        <circle style="fill:#EBF0F3;" cx="133.325" cy="426.906" r="22.456"/>
        <path style="fill:#D5D6DB;" d="M133.325,404.474c-0.283,0-0.546,0.073-0.826,0.083c11.099,0.442,19.979,9.514,19.979,20.722 c0,11.49-9.314,20.805-20.805,20.805c-11.208,0-20.279-8.88-20.722-19.979c-0.01,0.28-0.083,0.542-0.083,0.826 c0,12.401,10.054,22.455,22.456,22.455c12.401,0,22.456-10.054,22.456-22.455C155.781,414.527,145.727,404.474,133.325,404.474z"/>
        <circle style="fill:#EBF0F3;" cx="208.282" cy="426.906" r="22.456"/>
        <path style="fill:#D5D6DB;" d="M208.282,404.474c-0.283,0-0.546,0.073-0.826,0.083c11.099,0.442,19.979,9.514,19.979,20.722 c0,11.49-9.314,20.805-20.805,20.805c-11.208,0-20.279-8.88-20.722-19.979c-0.01,0.28-0.083,0.542-0.083,0.826 c0,12.401,10.054,22.455,22.456,22.455c12.401,0,22.456-10.054,22.456-22.455C230.738,414.527,220.684,404.474,208.282,404.474z"/>
        <circle style="fill:#EBF0F3;" cx="283.238" cy="426.906" r="22.456"/>
        <path style="fill:#D5D6DB;" d="M283.239,404.474c-0.283,0-0.546,0.073-0.826,0.083c11.099,0.442,19.979,9.514,19.979,20.722 c0,11.49-9.314,20.805-20.805,20.805c-11.208,0-20.279-8.88-20.722-19.979c-0.01,0.28-0.083,0.542-0.083,0.826 c0,12.401,10.054,22.455,22.456,22.455c12.401,0,22.456-10.054,22.456-22.455C305.695,414.527,295.64,404.474,283.239,404.474z"/>
        <circle style="fill:#27A2DB;" cx="358.195" cy="426.906" r="22.456"/>
        <path style="fill:#2D93BA;" d="M358.196,404.474c-0.283,0-0.546,0.073-0.826,0.083c11.099,0.442,19.979,9.514,19.979,20.722 c0,11.49-9.314,20.805-20.805,20.805c-11.208,0-20.279-8.88-20.722-19.979c-0.01,0.28-0.083,0.542-0.083,0.826 c0,12.401,10.054,22.455,22.456,22.455c12.402,0,22.456-10.054,22.456-22.455C380.652,414.527,370.597,404.474,358.196,404.474z"/>
    </g>
</svg>
