<?xml version="1.0" encoding="utf-8"?>

<!-- LICENSE: MIT License. AUTHOR: ShopWare. Uploaded to: SVG Repo, www.svgrepo.com, Generator: SVG Repo Mixer Tools -->
<svg width="64" height="64" viewBox="0 0 64 64" id="meteor-icon-kit__regular-image" fill="none" xmlns="http://www.w3.org/2000/svg">
    <path fill-rule="evenodd" clip-rule="evenodd" d="M5.33333 54.6597L24.6735 32.8949C25.6929 29.6149 26.8008 31.696 28.5523 34.1144L33.8856 38.1144C33.9251 38.1539 33.9629 38.1941 34.0661 38.2352L40.6181 30.2928C41.6219 29.0883 43.4435 28.8723 44.5523 30.1144L58.6667 44.2288V8C58.6667 6.52727 57.4727 5.33333 56 5.33333H8C6.52727 5.33333 5.33333 6.52727 5.33333 8V54.6597ZM8.90121 58.6667H56C57.4727 58.6667 58.6667 57.4727 58.6667 56V51.7712L42.8459 35.9504L31.3819 49.7072C30.4392 52.172 28.7576 51.2581 27.6261 47.2885C25.1615 44.3925 26.3419 47.4243 27.2848 46.2928L30.6245 42.2853C30.4427 42.1757 30.2712 42.0424 30.1144 41.8856L26.7808 38.5520L8.90121 58.6667ZM8 0H56C60.4183 0 64 3.58172 64 8V56C64 60.4183 60.4183 64 56 64H8C3.58172 64 0 60.4183 0 56V8C0 3.58172 3.58172 0 8 0ZM20 29.3333C14.8453 29.3333 10.6667 25.1547 10.6667 20C10.6667 14.8453 14.8453 10.6667 20 10.6667C25.1547 10.6667 29.3333 14.8453 29.3333 20C29.3333 25.1547 25.1547 29.3333 20 29.3333ZM20 24C22.2091 24 24 22.2091 24 20C24 17.7909 22.2091 16 20 16C17.7909 16 16 17.7909 16 20C16 22.2091 17.7909 24 20 24Z" fill="#758CA3"/>
    <g id="pencil_icon" transform="translate(20, 20) scale(1.5)">
        <g id="SVGRepo_tracerCarrier" stroke-linecap="round" stroke-linejoin="round"/>
        <g id="SVGRepo_iconCarrier">
            <g>
                <g>
                    <path fill="#2D2220" d="M27.05,4.93c-1.27-1.26-3.33-1.26-4.6,0L6.68,20.72c-0.09,0.09-0.17,0.2-0.22,0.32l-2.51,5.69 c-0.16,0.369-0.07,0.81,0.21,1.1c0.29,0.29,0.73,0.37,1.11,0.21l5.69-2.51c0.12-0.05,0.22-0.12,0.31-0.21L27.05,9.53 C28.31,8.26,28.31,6.2,27.05,4.93z M7.13,26.13l-1.26-1.26l1.31-2.98l2.93,2.92L7.13,26.13z M10.94,24.23L9.76,23.05l-2-2 c1.51-1.51,7.25-7.26,11.29-11.3l2,2l1.181,1.18C18.19,16.98,12.45,22.72,10.94,24.23z M22.93,12.23l-2.18-2.18l-1-1 c0.3-0.3,0.59-0.59,0.86-0.86l1,1l2.18,2.18C23.52,11.64,23.23,11.93,22.93,12.23z M24.5,10.67l-2.19-2.19l-1-1 c0.25-0.24,0.471-0.46,0.671-0.67l1,1L25.16,10C24.96,10.2,24.74,10.42,24.5,10.67z M26.34,8.82c-0.07,0.07-0.229,0.24-0.47,0.47 l-2.18-2.18l-1-1c0.229-0.24,0.39-0.4,0.47-0.47c0.88-0.88,2.3-0.88,3.18,0c0.17,0.17,0.311,0.37,0.41,0.58h0.01 c0.01,0.02,0.021,0.04,0.03,0.06c0.02,0.06,0.05,0.12,0.07,0.18c0.029,0.07,0.05,0.15,0.069,0.23 c0.011,0.02,0.011,0.03,0.011,0.04c0.02,0.08,0.04,0.16,0.04,0.24C26.99,7.05,27,7.14,27,7.23C27,7.8,26.78,8.38,26.34,8.82z"/>
                    <polygon fill="#FF6B43" points="10.11,24.81 7.13,26.13 6.87,25.87 8.18,22.89 "/>
                    <polygon fill="#FF8366" points="10.11,24.81 7.13,26.13 6.87,25.87 8.18,22.89 "/>
                    <path fill="#FF8366" d="M26.34,8.82c-0.07,0.07-0.229,0.24-0.47,0.47l-2.18-2.18c0.229-0.24,0.39-0.4,0.47-0.47 c0.71-0.71,1.76-0.85,2.6-0.42C27.19,7.06,27.05,8.11,26.34,8.82z"/>
                    <path fill="#BCBCBC" d="M25.16,10c-0.2,0.2-0.42,0.42-0.66,0.67l-2.19-2.19c0.25-0.24,0.471-0.46,0.671-0.67L25.16,10z"/>
                    <path fill="#BCBCBC" d="M23.79,11.37c-0.271,0.27-0.56,0.56-0.86,0.86l-2.18-2.18c0.3-0.3,0.59-0.59,0.86-0.86L23.79,11.37z"/>
                    <path fill="#FFD561" d="M22.23,12.93c-4.04,4.05-9.78,9.79-11.291,11.3L9.76,23.05c1.51-1.51,7.25-7.26,11.29-11.3L22.23,12.93z"/>
                </g>
            </g>
        </g>
    </g>
</svg>
