<?xml version="1.0" encoding="utf-8"?><!-- Uploaded to: SVG Repo, www.svgrepo.com, Generator: SVG Repo Mixer Tools -->
<svg width="24" height="24" viewBox="-0.5 0 25 25" fill="none" xmlns="http://www.w3.org/2000/svg">
<path d="M20 12.48V7.32007C20 6.2592 19.5786 5.24178 18.8284 4.49164C18.0783 3.74149 17.0609 3.32007 16 3.32007H6C4.93913 3.32007 3.92178 3.74149 3.17163 4.49164C2.42149 5.24178 2 6.2592 2 7.32007V17.3201C2 18.3809 2.42149 19.3984 3.17163 20.1485C3.92178 20.8986 4.93913 21.3201 6 21.3201H12.53" stroke="#000000" stroke-width="1.5" stroke-linecap="round" stroke-linejoin="round"/>
<path d="M17.0303 12.4801L2.82031 4.89014" stroke="#000000" stroke-width="1.5" stroke-linecap="round" stroke-linejoin="round"/>
<path d="M3.58008 20.5101L9.90009 8.68005" stroke="#000000" stroke-width="1.5" stroke-linecap="round" stroke-linejoin="round"/>
<path d="M18.44 22.2101C20.3399 22.2101 21.88 20.6699 21.88 18.7701C21.88 16.8702 20.3399 15.3301 18.44 15.3301C16.5401 15.3301 15 16.8702 15 18.7701C15 20.6699 16.5401 22.2101 18.44 22.2101Z" stroke="#000000" stroke-width="1.5" stroke-linecap="round" stroke-linejoin="round"/>
<path d="M23.0009 23.3201L20.8809 21.2001" stroke="#000000" stroke-width="1.5" stroke-linecap="round" stroke-linejoin="round"/>
</svg>