<?xml version="1.0" encoding="utf-8"?>
<!-- Uploaded to: SVG Repo, www.svgrepo.com, Generator: SVG Repo Mixer Tools -->
<svg width="128" height="128" viewBox="0 0 128 128" xmlns="http://www.w3.org/2000/svg" xmlns:xlink="http://www.w3.org/1999/xlink" aria-hidden="true" role="img" class="iconify iconify--noto" preserveAspectRatio="xMidYMid meet">
    <path fill="#f8f8f8" d="M87.85 6.19H16.8v115.45h94.62V28.8z"></path>
    <path d="M109.45 23.59L92.79 6.88A10.555 10.555 0 0 0 85.54 4h-68.5c-1.55 0-2.81 1.26-2.81 2.81v114.38c0 1.55 1.26 2.81 2.81 2.81h93.93c1.55 0 2.81-1.26 2.81-2.81V31.28c-.01-2.91-2.21-5.69-4.33-7.69zm.32 96.41H18.23V8h64.66c2.12 0 3.85 1.72 3.85 3.85v17.88h17.34c3.14 0 5.69 1.73 5.69 5.69V120z" fill="#6fbff0"></path>
</svg>
