<?xml version="1.0" encoding="iso-8859-1"?>
<!-- Uploaded to: SVG Repo, www.svgrepo.com, Generator: SVG Repo Mixer Tools -->
<svg version="1.1" id="Layer_1" xmlns="http://www.w3.org/2000/svg" xmlns:xlink="http://www.w3.org/1999/xlink" 
	 width="64" height="64" viewBox="0 0 64 64" xml:space="preserve">
<path style="fill:#F6C358;" d="M53.0,11.4c13.1,13.1,13.1,34.3,0,47.4
	c-14.9,14.9-15.4-5.9-28.4-18.9C11.4,26.8-9.6,26.5,5.6,11.4
	C18.6-1.7,39.9-1.7,53.0,11.4z"/>
<path style="fill:#FCD462;" d="M54.0,9.8c13.1,13.1,13.1,34.3,0,47.4
	c-14.9,14.9-15.4-5.9-28.4-18.9S-8.6,24.9,6.5,9.8C19.6-3.3,40.9-3.3,54.0,9.8z"/>
<circle style="fill:#DC8744;" cx="12.7" cy="15.8" r="5.2"/>
<circle style="fill:#FFFFFF;" cx="27.3" cy="9.8" r="5.2"/>
<circle style="fill:#E56353;" cx="43.4" cy="12.6" r="5.2"/>
<circle style="fill:#27A2DB;" cx="53.0" cy="24.8" r="5.2"/>
<circle style="fill:#64798A;" cx="53.0" cy="40.4" r="5.2"/>
<circle style="fill:#CE412D;" cx="45.6" cy="52.1" r="5.2"/>
<path style="fill:#DC8744;" d="M28.8,17.5L13.4,62.7c-0.2,0.5,0.1,1.1,0.6,1.3
	c0.5,0.2,1.1-0.1,1.3-0.6L33.1,19.1L28.8,17.5z"/>
<rect x="29.4" y="14.3" transform="matrix(-0.9376 -0.3477 0.3477 -0.9376 55.7 42.8)" style="fill:#EBF0F3;" width="4.6" height="4.2"/>
<path style="fill:#64798A;" d="M35.3,12.4c-0.3-0.3-0.7-0.7-1.2-0.7c-0.2,0-0.5,0.1-0.7,0.2
	c-0.5,0.1-0.9-0.2-1.1-0.7c-0.1-0.2,0-0.4-0.1-0.7c0,0,0-0.1,0-0.1
	c-1.0,1.0-1.9,1.6-2.2,2.4c-0.2,0.5-0.2,1.0-0.1,1.5l4.3,1.6
	c0.4-0.3,0.7-0.7,0.9-1.2c0.1-0.4,0.3-1.2,0.3-2.1C35.4,12.5,35.4,12.4,35.3,12.4z"/>
<path style="fill:#E56353;" d="M32.4,11.2c0.1,0.4,0.6,0.7,1.1,0.7c0.2,0,0.5-0.2,0.7-0.2
	c0.5,0,0.8,0.4,1.2,0.7c0.1,0.1,0.2,0.1,0.2,0.2c0.2-2.6,0.2-6.5-0.4-5.5
	c-1.0,1.5-2.0,2.6-2.9,3.4c0,0,0,0.1,0,0.1C32.3,10.8,32.3,11.0,32.4,11.2z"/>
</svg>