<!DOCTYPE svg PUBLIC "-//W3C//DTD SVG 1.1//EN" "http://www.w3.org/Graphics/SVG/1.1/DTD/svg11.dtd">

<!-- LICENSE: PD License. AUTHOR: Juan Sarmiento. Uploaded to: SVG Repo, www.svgrepo.com, Transformed by: SVG Repo Mixer Tools -->
<svg version="1.1" id="Capa_1"
    xmlns="http://www.w3.org/2000/svg"
    xmlns:xlink="http://www.w3.org/1999/xlink" width="32px" height="32px" viewBox="0 0 32 32" enable-background="new 0 0 32 32" xml:space="preserve" fill="#000000">
    <g id="SVGRepo_bgCarrier" stroke-width="0"/>
    <g id="SVGRepo_tracerCarrier" stroke-linecap="round" stroke-linejoin="round"/>
    <g id="SVGRepo_iconCarrier">
        <g>
            <g>
                <path fill="#2D2220" d="M27.05,4.93c-1.27-1.26-3.33-1.26-4.6,0L6.68,20.72c-0.09,0.09-0.17,0.2-0.22,0.32l-2.51,5.69 c-0.16,0.369-0.07,0.81,0.21,1.1c0.29,0.29,0.73,0.37,1.11,0.21l5.69-2.51c0.12-0.05,0.22-0.12,0.31-0.21L27.05,9.53 C28.31,8.26,28.31,6.2,27.05,4.93z M7.13,26.13l-1.26-1.26l1.31-2.98l2.93,2.92L7.13,26.13z M10.94,24.23L9.76,23.05l-2-2 c1.51-1.51,7.25-7.26,11.29-11.3l2,2l1.181,1.18C18.19,16.98,12.45,22.72,10.94,24.23z M22.93,12.23l-2.18-2.18l-1-1 c0.3-0.3,0.59-0.59,0.86-0.86l1,1l2.18,2.18C23.52,11.64,23.23,11.93,22.93,12.23z M24.5,10.67l-2.19-2.19l-1-1 c0.25-0.24,0.471-0.46,0.671-0.67l1,1L25.16,10C24.96,10.2,24.74,10.42,24.5,10.67z M26.34,8.82c-0.07,0.07-0.229,0.24-0.47,0.47 l-2.18-2.18l-1-1c0.229-0.24,0.39-0.4,0.47-0.47c0.88-0.88,2.3-0.88,3.18,0c0.17,0.17,0.311,0.37,0.41,0.58h0.01 c0.01,0.02,0.021,0.04,0.03,0.06c0.02,0.06,0.05,0.12,0.07,0.18c0.029,0.07,0.05,0.15,0.069,0.23 c0.011,0.02,0.011,0.03,0.011,0.04c0.02,0.08,0.04,0.16,0.04,0.24C26.99,7.05,27,7.14,27,7.23C27,7.8,26.78,8.38,26.34,8.82z"/>
                <polygon fill="#FF6B43" points="10.11,24.81 7.13,26.13 6.87,25.87 8.18,22.89 "/>
                <polygon fill="#FF8366" points="10.11,24.81 7.13,26.13 6.87,25.87 8.18,22.89 "/>
                <path fill="#FF8366" d="M26.34,8.82c-0.07,0.07-0.229,0.24-0.47,0.47l-2.18-2.18c0.229-0.24,0.39-0.4,0.47-0.47 c0.71-0.71,1.76-0.85,2.6-0.42C27.19,7.06,27.05,8.11,26.34,8.82z"/>
                <path fill="#BCBCBC" d="M25.16,10c-0.2,0.2-0.42,0.42-0.66,0.67l-2.19-2.19c0.25-0.24,0.471-0.46,0.671-0.67L25.16,10z"/>
                <path fill="#BCBCBC" d="M23.79,11.37c-0.271,0.27-0.56,0.56-0.86,0.86l-2.18-2.18c0.3-0.3,0.59-0.59,0.86-0.86L23.79,11.37z"/>
                <path fill="#FFD561" d="M22.23,12.93c-4.04,4.05-9.78,9.79-11.291,11.3L9.76,23.05c1.51-1.51,7.25-7.26,11.29-11.3L22.23,12.93z"/>
            </g>
        </g>
    </g>
</svg>
