<?xml version="1.0" encoding="utf-8"?>

<!-- LICENSE: CC0 License. Uploaded to: SVG Repo, www.svgrepo.com, Generator: SVG Repo Mixer Tools -->
<svg version="1.1" id="Layer_1"
	xmlns="http://www.w3.org/2000/svg"
	xmlns:xlink="http://www.w3.org/1999/xlink" width="64" height="64" viewBox="0 0 64 64" xml:space="preserve">
	<path style="fill:#F15A24;" d="M16,57.5h47V21.5c0-8.3-6.7-15-15-15H16c-8.3,0-15,6.7-15,15v21C1,46.8,7.7,57.5,16,57.5z"/>
	<path style="fill:#FBB03B;" d="M31,6.5h17c8.3,0,15,6.7,15,15v36H46V21.4C46,13.1,39.3,6.5,31,6.5z"/>
	<rect x="9" y="15.5" style="fill:#F2F2F2;" width="47" height="33"/>
	<rect x="9" y="15.5" style="fill:#B8B5AD;" width="16" height="33"/>
	<rect x="12" y="18.5" style="fill:#84DCCF;" width="41" height="27"/>
	<rect x="12" y="34.5" style="fill:#027EA8;" width="41" height="11"/>
	<path style="fill:#F15A24;" d="M21.7,40.5c-0.4-0.9-0.7-1.9-0.7-3c0-3.9,3.1-7,7-7c2.8,0,5.2,1.6,6.3,4l-5.3,6L21.7,40.5z"/>
	<polygon style="fill:#FBB03B;" points="12,40.6 29,40.6 37.3,32 41,35.6 47,29.6 53,35.6 53,40.6 "/>
	<rect x="12" y="40.5" style="fill:#FFFFFF;" width="41" height="5"/>
	<polygon style="fill:#F15A24;" points="47,30.5 47,36.5 51,33.5 "/>
	<path d="M64,58.5H16C7.2,58.5,0,51.3,0,42.5v-21C0,12.7,7.2,5.5,16,5.5h32c8.8,0,16,7.2,16,16v37H64z M16,7.5c-7.7,0-14,6.3-14,14v21c0,7.7,6.3,14,14,14h46V21.5c0-7.7-6.3-14-14-14H16V7.5z"/>
	<path d="M57,49.4H8V14.6h49v34.8H57z M10,47.4h45V16.6H10V47.4z"/>
	<g>
		<polygon style="fill:#FFFFFF;" points="17,25.5 15,25.5 15,21.4 31,21.4 31,23.4 17,23.4 "/>
		<rect x="33" y="21.4" style="fill:#FFFFFF;" width="3" height="2"/>
	</g>
	<path d="M11,17.5v29h43v-29H11z M52,19.5v14l-5-5l-6,6l-3.7-3.5l-2.6,2.6c-1.4-2.3-4-3.7-6.8-3.7c-4.4,0-8,3.6-8,8c0,0.7,0.1,1.4,0.3,2h-7.3V19.5H52z M22.3,39.5c-0.2-0.6-0.3-1.3-0.3-2c0-3.3,2.7-6,6-6c2.2,0,4.3,1.3,5.3,3.2l-4.7,4.8h-6.3V39.5z M13,44.5v-3h16.4l8-8.1l3.7,3.5l6-6l5,5v3.5H35v2h17v3H13z"/>
</svg>
