<?xml version="1.0" encoding="utf-8"?>

<!-- LICENSE: CC Attribution License. Based on pictures.svg -->
<svg width="64" height="64" viewBox="0 0 64 64"
  xmlns="http://www.w3.org/2000/svg">
  <g id="picture">
    <rect id="Rectangle_18" data-name="Rectangle 18" width="50" height="54" x="7" y="5" fill="none" stroke="#1b8cff" stroke-linecap="round" stroke-linejoin="round" stroke-width="4"/>
    <rect id="Rectangle_19" data-name="Rectangle 19" width="40" height="44" x="12" y="10" fill="#1b8cff" opacity="0.3"/>
    <rect id="Rectangle_border" width="40" height="44" x="12" y="10" fill="none" stroke="#1b8cff" stroke-linecap="square" stroke-miterlimit="10" stroke-width="2"/>
    <path id="Path_119" data-name="Path 119" d="M44,34a12,12,0,0,0-24,0" fill="none" stroke="#41b2ff" stroke-linecap="round" stroke-linejoin="round" stroke-width="2"/>
    <line id="Line_222" data-name="Line 222" x1="12" y1="34" x2="52" y2="34" fill="none" stroke="#41b2ff" stroke-miterlimit="10" stroke-width="2"/>
    <line id="Line_223" data-name="Line 223" x1="30" y1="38" x2="52" y2="38" fill="none" stroke="#41b2ff" stroke-linecap="round" stroke-linejoin="round" stroke-width="2"/>
    <line id="Line_224" data-name="Line 224" x1="12" y1="42" x2="32" y2="42" fill="none" stroke="#41b2ff" stroke-linecap="round" stroke-linejoin="round" stroke-width="2"/>
    <line id="Line_225" data-name="Line 225" x1="44" y1="42" x2="52" y2="42" fill="none" stroke="#41b2ff" stroke-linecap="round" stroke-linejoin="round" stroke-width="2"/>
    <line id="Line_226" data-name="Line 226" x1="12" y1="38" x2="20" y2="38" fill="none" stroke="#41b2ff" stroke-linecap="round" stroke-linejoin="round" stroke-width="2"/>
    <line id="Line_227" data-name="Line 227" x1="12" y1="12" x2="52" y2="12" fill="none" stroke="#ffffff" stroke-miterlimit="10" stroke-width="2" opacity="0.5"/>
    <line id="Line_228" data-name="Line 228" x1="12" y1="52" x2="52" y2="52" fill="none" stroke="#ffffff" stroke-miterlimit="10" stroke-width="2" opacity="0.5"/>
    <line id="Line_230" data-name="Line 230" x1="17" y1="17" x2="29" y2="17" fill="none" stroke="#ffffff" stroke-linecap="round" stroke-linejoin="round" stroke-width="2" opacity="0.5"/>
    <line id="Line_231" data-name="Line 231" x1="28" y1="20" x2="34" y2="20" fill="none" stroke="#ffffff" stroke-linecap="round" stroke-linejoin="round" stroke-width="2" opacity="0.5"/>

    <g id="link_icon" transform="translate(39, 39)">
      <circle cx="8" cy="7" r="17" fill="#4CAF50"/>
      <g transform="translate(-10, -11) scale(1.5)">
        <path d="M23,12a5.006,5.006,0,0,1-5,5H16a1,1,0,0,1,0-2h2a3,3,0,0,0,0-6H16a1,1,0,0,1,0-2h2A5.006,5.006,0,0,1,23,12ZM6,17H8a1,1,0,0,0,0-2H6A3,3,0,0,1,6,9H8A1,1,0,0,0,8,7H6A5,5,0,0,0,6,17Zm1-5a1,1,0,0,0,1,1h8a1,1,0,0,0,0-2H8A1,1,0,0,0,7,12Z" fill="#FFFFFF"/>
      </g>
    </g>
  </g>
</svg>
