<?xml version="1.0" encoding="UTF-8"?>

<!-- LICENSE: CC0 License. Uploaded to: SVG Repo, www.svgrepo.com, Generator: SVG Repo Mixer Tools -->
<svg version="1.1" id="Layer_1"
	xmlns="http://www.w3.org/2000/svg"
	xmlns:xlink="http://www.w3.org/1999/xlink" width="64" height="64" viewBox="0 0 64 64" xml:space="preserve">
	<g>
		<g>
			<rect x="1.3" y="1.3" style="fill:#D1E2EB;" width="61.4" height="61.4"/>
			<path d="M62.7,64H1.3c-0.7,0-1.3-0.6-1.3-1.3V1.3C0,0.6,0.6,0,1.3,0h61.4c0.7,0,1.3,0.6,1.3,1.3v61.4
			C64,63.4,63.4,64,62.7,64z M2.6,61.4h58.8V2.6H2.6V61.4z"/>
		</g>
		<g>
			<g>
				<rect x="14.3" y="6.9" style="fill:#4EC9DC;" width="35.4" height="22.3"/>
				<path d="M49.7,30.5H14.3c-0.7,0-1.3-0.6-1.3-1.3V6.9c0-0.7,0.6-1.3,1.3-1.3h35.4c0.7,0,1.3,0.6,1.3,1.3v22.3
				C51,29.9,50.4,30.5,49.7,30.5z M15.6,27.9h32.8V8.2H15.6V27.9z"/>
			</g>
			<g>
				<g>
					<rect x="6.1" y="7.1" style="fill:#4EC9DC;" width="3.6" height="3.8"/>
					<path d="M9.7,12.2H6.1c-0.7,0-1.3-0.6-1.3-1.3V7.1c0-0.7,0.6-1.3,1.3-1.3h3.6c0.7,0,1.3,0.6,1.3,1.3v3.8
					C11,11.6,10.4,12.2,9.7,12.2z M7.4,9.6h1V8.4h-1V9.6z"/>
				</g>
				<g>
					<rect x="6.1" y="18.6" style="fill:#4EC9DC;" width="3.6" height="3.8"/>
					<path d="M9.7,23.7H6.1c-0.7,0-1.3-0.6-1.3-1.3v-3.8c0-0.7,0.6-1.3,1.3-1.3h3.6c0.7,0,1.3,0.6,1.3,1.3v3.8
					C11,23.1,10.4,23.7,9.7,23.7z M7.4,21.1h1v-1.3h-1V21.1z"/>
				</g>
				<g>
					<rect x="6.1" y="30.1" style="fill:#4EC9DC;" width="3.6" height="3.8"/>
					<path d="M9.7,35.2H6.1c-0.7,0-1.3-0.6-1.3-1.3v-3.8c0-0.7,0.6-1.3,1.3-1.3h3.6c0.7,0,1.3,0.6,1.3,1.3v3.8
					C11,34.6,10.4,35.2,9.7,35.2z M7.4,32.6h1v-1.3h-1V32.6z"/>
				</g>
				<g>
					<rect x="6.1" y="41.6" style="fill:#4EC9DC;" width="3.6" height="3.8"/>
					<path d="M9.7,46.7H6.1c-0.7,0-1.3-0.6-1.3-1.3v-3.8c0-0.7,0.6-1.3,1.3-1.3h3.6c0.7,0,1.3,0.6,1.3,1.3v3.8
					C11,46.1,10.4,46.7,9.7,46.7z M7.4,44.1h1v-1.3h-1V44.1z"/>
				</g>
				<g>
					<rect x="6.1" y="53.1" style="fill:#4EC9DC;" width="3.6" height="3.8"/>
					<path d="M9.7,58.2H6.1c-0.7,0-1.3-0.6-1.3-1.3v-3.8c0-0.7,0.6-1.3,1.3-1.3h3.6c0.7,0,1.3,0.6,1.3,1.3v3.8
					C11,57.6,10.4,58.2,9.7,58.2z M7.4,55.6h1v-1.3h-1V55.6z"/>
				</g>
			</g>
			<g>
				<g>
					<rect x="54.3" y="7.1" style="fill:#4EC9DC;" width="3.6" height="3.8"/>
					<path d="M57.9,12.2h-3.6c-0.7,0-1.3-0.6-1.3-1.3V7.1c0-0.7,0.6-1.3,1.3-1.3h3.6c0.7,0,1.3,0.6,1.3,1.3v3.8
					C59.2,11.6,58.6,12.2,57.9,12.2z M55.6,9.6h1V8.4h-1V9.6z"/>
				</g>
				<g>
					<rect x="54.3" y="18.6" style="fill:#4EC9DC;" width="3.6" height="3.8"/>
					<path d="M57.9,23.7h-3.6c-0.7,0-1.3-0.6-1.3-1.3v-3.8c0-0.7,0.6-1.3,1.3-1.3h3.6c0.7,0,1.3,0.6,1.3,1.3v3.8
					C59.2,23.1,58.6,23.7,57.9,23.7z M55.6,21.1h1v-1.3h-1V21.1z"/>
				</g>
				<g>
					<rect x="54.3" y="30.1" style="fill:#4EC9DC;" width="3.6" height="3.8"/>
					<path d="M57.9,35.2h-3.6c-0.7,0-1.3-0.6-1.3-1.3v-3.8c0-0.7,0.6-1.3,1.3-1.3h3.6c0.7,0,1.3,0.6,1.3,1.3v3.8
					C59.2,34.6,58.6,35.2,57.9,35.2z M55.6,32.6h1v-1.3h-1V32.6z"/>
				</g>
				<g>
					<rect x="54.3" y="41.6" style="fill:#4EC9DC;" width="3.6" height="3.8"/>
					<path d="M57.9,46.7h-3.6c-0.7,0-1.3-0.6-1.3-1.3v-3.8c0-0.7,0.6-1.3,1.3-1.3h3.6c0.7,0,1.3,0.6,1.3,1.3v3.8
					C59.2,46.1,58.6,46.7,57.9,46.7z M55.6,44.1h1v-1.3h-1V44.1z"/>
				</g>
				<g>
					<rect x="54.3" y="53.1" style="fill:#4EC9DC;" width="3.6" height="3.8"/>
					<path d="M57.9,58.2h-3.6c-0.7,0-1.3-0.6-1.3-1.3v-3.8c0-0.7,0.6-1.3,1.3-1.3h3.6c0.7,0,1.3,0.6,1.3,1.3v3.8
					C59.2,57.6,58.6,58.2,57.9,58.2z M55.6,55.6h1v-1.3h-1V55.6z"/>
				</g>
			</g>
			<g>
				<rect x="14.3" y="34.8" style="fill:#4EC9DC;" width="35.4" height="22.3"/>
				<path d="M49.7,58.4H14.3c-0.7,0-1.3-0.6-1.3-1.3V34.8c0-0.7,0.6-1.3,1.3-1.3h35.4c0.7,0,1.3,0.6,1.3,1.3v22.3
				C51,57.8,50.4,58.4,49.7,58.4z M15.6,55.8h32.8V36.1H15.6V55.8z"/>
			</g>
		</g>
		<g>
			<path d="M34.3,12.5H18.7c-0.7,0-1.3-0.6-1.3-1.3s0.6-1.3,1.3-1.3h15.6c0.7,0,1.3,0.6,1.3,1.3S35,12.5,34.3,12.5z"/>
		</g>
		<g>
			<path d="M40.8,12.5h-1.5c-0.7,0-1.3-0.6-1.3-1.3s0.6-1.3,1.3-1.3h1.5c0.7,0,1.3,0.6,1.3,1.3S41.5,12.5,40.8,12.5z"/>
		</g>
	</g>
</svg>
