<?xml version="1.0" encoding="utf-8"?>
<!DOCTYPE svg PUBLIC "-//W3C//DTD SVG 1.1//EN" "http://www.w3.org/Graphics/SVG/1.1/DTD/svg11.dtd">

<!-- LICENSE: PD License. AUTHOR: Icooon Mono. Uploaded to: SVG Repo, www.svgrepo.com, Generator: SVG Repo Mixer Tools -->
<svg height="64" width="64" version="1.1" id="_x32_" xmlns="http://www.w3.org/2000/svg" xmlns:xlink="http://www.w3.org/1999/xlink" 
	 viewBox="0 0 64 64"  xml:space="preserve">
<style type="text/css">
	.st0{fill:#000000;}
</style>
<g>
	<path class="st0" d="M51.576,0H12.423C8.908,0,6.059,2.849,6.059,6.365v51.645c0,1.639,0.671,3.206,1.857,4.334
		c1.188,1.131,2.785,1.726,4.422,1.647l35.778-1.73v-0.001c1.331-0.011,2.608-0.286,3.771-0.778
		c1.782-0.754,3.291-2.008,4.36-3.59c1.069-1.581,1.696-3.498,1.696-5.546V6.365C57.942,2.849,55.091,0,51.576,0z
		 M54.244,52.349c-0.001,0.865-0.175,1.677-0.488,2.42c-0.471,1.113-1.262,2.067-2.256,2.738
		c-0.993,0.671-2.18,1.06-3.474,1.061c-0.814-0.001-1.62-0.195-2.394-0.587c-1.157-0.588-2.247-1.632-3.062-3.163
		c-0.813-1.529-1.345-3.545-1.346-6.023v-1.104c0-0.378-0.189-0.73-0.505-0.938c-0.316-0.207-0.715-0.243-1.062-0.093
		l-27.81,11.983c-0.463,0.199-0.995,0.153-1.416-0.124c-0.421-0.277-0.674-0.748-0.674-1.251V6.693
		c0-1.654,1.341-2.995,2.994-2.995h38.497c1.654,0,2.996,1.341,2.996,2.995V52.349z"/>
	<path class="st0" d="M25.116,26.597v9.442c-0.797-0.294-1.74-0.381-2.71-0.193c-2.332,0.449-3.938,2.289-3.588,4.108
		c0.351,1.821,2.525,2.932,4.857,2.483c2.07-0.398,3.565-1.893,3.629-3.499h0.013v-12.485l11.177-1.681v9.296
		c-0.797-0.292-1.74-0.378-2.71-0.191c-2.332,0.448-3.938,2.288-3.588,4.108c0.351,1.82,2.525,2.932,4.857,2.482
		c2.069-0.4,3.564-1.894,3.628-3.499h0.014v-12.34v-4.102L25.116,22.497V26.597z"/>
</g>
</svg>
