<?xml version="1.0" encoding="utf-8"?>

<!-- LICENSE: CC Attribution License. Based on pictures.svg -->
<svg width="64" height="64" viewBox="0 0 64 64"
    xmlns="http://www.w3.org/2000/svg">
    <g id="picture">
        <rect id="Rectangle_18" data-name="Rectangle 18" width="50" height="54" x="7" y="5" fill="none" stroke="#1b8cff" stroke-linecap="round" stroke-linejoin="round" stroke-width="4"/>
        <rect id="Rectangle_19" data-name="Rectangle 19" width="40" height="44" x="12" y="10" fill="#1b8cff" opacity="0.3"/>
        <rect id="Rectangle_border" width="40" height="44" x="12" y="10" fill="none" stroke="#1b8cff" stroke-linecap="square" stroke-miterlimit="10" stroke-width="2"/>
        <path id="Path_119" data-name="Path 119" d="M44,34a12,12,0,0,0-24,0" fill="none" stroke="#41b2ff" stroke-linecap="round" stroke-linejoin="round" stroke-width="2"/>
        <line id="Line_222" data-name="Line 222" x1="12" y1="34" x2="52" y2="34" fill="none" stroke="#41b2ff" stroke-miterlimit="10" stroke-width="2"/>
        <line id="Line_223" data-name="Line 223" x1="30" y1="38" x2="52" y2="38" fill="none" stroke="#41b2ff" stroke-linecap="round" stroke-linejoin="round" stroke-width="2"/>
        <line id="Line_224" data-name="Line 224" x1="12" y1="42" x2="32" y2="42" fill="none" stroke="#41b2ff" stroke-linecap="round" stroke-linejoin="round" stroke-width="2"/>
        <line id="Line_225" data-name="Line 225" x1="44" y1="42" x2="52" y2="42" fill="none" stroke="#41b2ff" stroke-linecap="round" stroke-linejoin="round" stroke-width="2"/>
        <line id="Line_226" data-name="Line 226" x1="12" y1="38" x2="20" y2="38" fill="none" stroke="#41b2ff" stroke-linecap="round" stroke-linejoin="round" stroke-width="2"/>
        <line id="Line_227" data-name="Line 227" x1="12" y1="12" x2="52" y2="12" fill="none" stroke="#ffffff" stroke-miterlimit="10" stroke-width="2" opacity="0.5"/>
        <line id="Line_228" data-name="Line 228" x1="12" y1="52" x2="52" y2="52" fill="none" stroke="#ffffff" stroke-miterlimit="10" stroke-width="2" opacity="0.5"/>
        <line id="Line_230" data-name="Line 230" x1="17" y1="17" x2="29" y2="17" fill="none" stroke="#ffffff" stroke-linecap="round" stroke-linejoin="round" stroke-width="2" opacity="0.5"/>
        <line id="Line_231" data-name="Line 231" x1="28" y1="20" x2="34" y2="20" fill="none" stroke="#ffffff" stroke-linecap="round" stroke-linejoin="round" stroke-width="2" opacity="0.5"/>
    </g>

    <g id="pencil_icon" transform="translate(20, 20) scale(1.5)">
        <g id="SVGRepo_tracerCarrier" stroke-linecap="round" stroke-linejoin="round"/>
        <g id="SVGRepo_iconCarrier">
            <g>
                <g>
                    <path fill="#2D2220" d="M27.05,4.93c-1.27-1.26-3.33-1.26-4.6,0L6.68,20.72c-0.09,0.09-0.17,0.2-0.22,0.32l-2.51,5.69 c-0.16,0.369-0.07,0.81,0.21,1.1c0.29,0.29,0.73,0.37,1.11,0.21l5.69-2.51c0.12-0.05,0.22-0.12,0.31-0.21L27.05,9.53 C28.31,8.26,28.31,6.2,27.05,4.93z M7.13,26.13l-1.26-1.26l1.31-2.98l2.93,2.92L7.13,26.13z M10.94,24.23L9.76,23.05l-2-2 c1.51-1.51,7.25-7.26,11.29-11.3l2,2l1.181,1.18C18.19,16.98,12.45,22.72,10.94,24.23z M22.93,12.23l-2.18-2.18l-1-1 c0.3-0.3,0.59-0.59,0.86-0.86l1,1l2.18,2.18C23.52,11.64,23.23,11.93,22.93,12.23z M24.5,10.67l-2.19-2.19l-1-1 c0.25-0.24,0.471-0.46,0.671-0.67l1,1L25.16,10C24.96,10.2,24.74,10.42,24.5,10.67z M26.34,8.82c-0.07,0.07-0.229,0.24-0.47,0.47 l-2.18-2.18l-1-1c0.229-0.24,0.39-0.4,0.47-0.47c0.88-0.88,2.3-0.88,3.18,0c0.17,0.17,0.311,0.37,0.41,0.58h0.01 c0.01,0.02,0.021,0.04,0.03,0.06c0.02,0.06,0.05,0.12,0.07,0.18c0.029,0.07,0.05,0.15,0.069,0.23 c0.011,0.02,0.011,0.03,0.011,0.04c0.02,0.08,0.04,0.16,0.04,0.24C26.99,7.05,27,7.14,27,7.23C27,7.8,26.78,8.38,26.34,8.82z"/>
                    <polygon fill="#FF6B43" points="10.11,24.81 7.13,26.13 6.87,25.87 8.18,22.89 "/>
                    <polygon fill="#FF8366" points="10.11,24.81 7.13,26.13 6.87,25.87 8.18,22.89 "/>
                    <path fill="#FF8366" d="M26.34,8.82c-0.07,0.07-0.229,0.24-0.47,0.47l-2.18-2.18c0.229-0.24,0.39-0.4,0.47-0.47 c0.71-0.71,1.76-0.85,2.6-0.42C27.19,7.06,27.05,8.11,26.34,8.82z"/>
                    <path fill="#BCBCBC" d="M25.16,10c-0.2,0.2-0.42,0.42-0.66,0.67l-2.19-2.19c0.25-0.24,0.471-0.46,0.671-0.67L25.16,10z"/>
                    <path fill="#BCBCBC" d="M23.79,11.37c-0.271,0.27-0.56,0.56-0.86,0.86l-2.18-2.18c0.3-0.3,0.59-0.59,0.86-0.86L23.79,11.37z"/>
                    <path fill="#FFD561" d="M22.23,12.93c-4.04,4.05-9.78,9.79-11.291,11.3L9.76,23.05c1.51-1.51,7.25-7.26,11.29-11.3L22.23,12.93z"/>
                </g>
            </g>
        </g>
    </g>
</svg>
